<svg xmlns="http://www.w3.org/2000/svg" viewBox="0 0 676 768"><path d="M302.28,662.29c-1.57,2.2-1.83,4.71-2.75,6.87-1,2.32-2.39,3.37-3.92,2.57-2.2-1.15-2.44-2.51-1.51-5.35,1.2-3.62,2.12-7.36,3.15-11a12.81,12.81,0,0,1,.49-2c1.42-3,.88-5.89,0-9-1-3.7-2.27-7.32-3.36-11S292,626,290.62,622.4c-1.93-5-3.69-10-5.75-15-3-7.13-6.74-13.74-10-20.7A136.48,136.48,0,0,1,268.66,571a142.61,142.61,0,0,1-3.87-15.92c-1.13-5.63-1.82-11.29-2.4-17-.52-5.12-1.71-10.14-2.23-15.25-.4-3.89-1.23-7.68-1.85-11.49-.52-3.17-1-6.4-1.85-9.53-.73-2.73-1.15-5.6-1.68-8.41a7.89,7.89,0,0,0-1.48-3.87c-.1,1.25-.25,2.28-.25,3.32,0,5.67-1.09,11.21-1.75,16.77a81.11,81.11,0,0,1-1.89,11.2c-.85,3.26-1.38,6.65-2.69,9.75a120.13,120.13,0,0,1-8.54,15.68q-6.36,10.47-13.05,20.69c-3.73,5.68-7.69,11.15-11.54,16.72-5.33,7.72-11,15.18-15.88,23.25s-9,16.7-13.45,25.11c-3.2,6.07-6.32,12.21-9.55,18.27A30.17,30.17,0,0,0,171.62,668a16.51,16.51,0,0,0,2.65,6.79,63.3,63.3,0,0,1,7,16c.79,2.72,1.82,5.54,1.69,8.61-.13,3.29-1,4.6-3.8,5.76-4.87,2-9.6,1.23-14.56.23-5.61-1.13-9.68-4.86-14-8.58a109.59,109.59,0,0,1-13.83-13.84c-5-6.25-4.7-9.66.1-15.78,3-3.9,6.37-7.44,8.28-12.33,1.55-4,3.19-7.93,4.71-11.93,2.08-5.49,4.17-11,6.1-16.55s3.56-11.09,5.44-16.59c2-5.8,3.91-11.61,6-17.37,2.16-6.06,4.53-12,7-17.91,3.67-9,8-17.36,14.2-24.4,4.63-5.28,9.51-10.33,13.32-16.49a27.3,27.3,0,0,0,3.73-10.23,74.9,74.9,0,0,0,.27-22.91,41,41,0,0,1-.33-7.5c.36-9.14-1.11-18.14-1.67-27.18-.41-6.61-.28-13.43-2-20a61.49,61.49,0,0,1-1.17-7.79c-.63-5.15-3.18-9.09-5-13.48-2.44-5.83-5.1-11.52-7.3-17.5s-4.1-12-5.89-18.16c-1-3.29-.65-6.86-.74-10.28a81.94,81.94,0,0,1,.74-12.42A61.84,61.84,0,0,1,186.89,350a22.33,22.33,0,0,0,1.77-11.15A5,5,0,0,0,188,337a3.67,3.67,0,0,1-.19-3.57,9.65,9.65,0,0,0,.09-8.09,5.76,5.76,0,0,1-.35-3.22,27,27,0,0,0-.28-8.89c-1-7-2.47-13.78-6.25-19.72-3-4.77-5.47-10.06-8.23-15.07-.95-1.71-2-3.27-3.86-4-1-.38-1.74-1.46-2.67-2.11-.55-.39-.82-1.5-1.63-1.14s-.8,1.52-.85,2.45a6.24,6.24,0,0,1-1.11,3.7c-.41.5-.8,1.2-1.51.94s-.68-.93-.83-1.53a.68.68,0,0,1,0-.23c.93-5.83-3.65-7.54-6.1-10.83-1.07-1.44-1.6.08-1.88.82a11.71,11.71,0,0,1-1.9,3.29,1.15,1.15,0,0,1-1.65.38,1.37,1.37,0,0,1-.49-1.81,11.34,11.34,0,0,0,.38-3.72c0-.55.05-1.4-.36-1.51-2.29-.59-2.31-3-3-4.85a47.45,47.45,0,0,1-2.6-9.57,7.42,7.42,0,0,1,.14-3.48c1-3,.29-6.09.77-9.1.16-1-.36-1-1-.67a7.73,7.73,0,0,1-1.94.68c-.82.15-1.72.13-2.13-.89a2.69,2.69,0,0,1,.45-2.63,8,8,0,0,1,1.05-1.12c2.41-2.21,4-4.78,3.49-8.64-.26-1.95.76-3.65,1.63-5.22a16.43,16.43,0,0,0,1.73-4.49c.32-1.58,1.23-3.72-1.24-4.61-.91-.33-.91-1.63-.87-2.69.18-4.94.73-9.86,1.37-14.71a85.84,85.84,0,0,1,3.41-14.4c1.25-3.95,2.67-7.79,4.11-11.63a48.33,48.33,0,0,1,4.65-8.78c.48-.75,1.28-1.61.62-2.43s-1.36.15-2,.58c-2.6,1.77-4.42,1.58-6.68-.59a18.84,18.84,0,0,1-5.17-9.63c-.94-4.06,1.25-6.87,3.07-9.76,2-3.22,4.45-6.14,6-9.72a17.32,17.32,0,0,0,1.42-10.12c-.92-6-2.32-11.89-3.47-17.82a67.52,67.52,0,0,1-1-12.79c-.09-15.88,5.73-28.16,17.19-36.89,2.93-2.23,5.37-5.38,8.71-6.82s6.43-2.68,10.06-1.44c2.36.82,4.9.87,7.3,1.87A41.79,41.79,0,0,1,213,55.25a106.24,106.24,0,0,0,8.61,10,2.81,2.81,0,0,0,1.55,1c4.44.29,8.78,1.73,13.36.76,3.07-.65,6-2,9.06-2.36,2.45-.29,4.6.43,5.65,3.12s-.14,5-1.6,7.11A13.25,13.25,0,0,1,244.48,79c-2.88,1.43-4.48,3.86-5.57,7-1.84,5.32-4.87,9.75-8.08,14-3.08,4.08-3.42,10.5-.4,14.64,2.56,3.5,2.68,5.93-1.73,8.65-1.32.82-1.17,1.44-1.19,3-.06,2.82.08,6-1.75,8.38a43.07,43.07,0,0,0-3,4.1,6.83,6.83,0,0,0-1,3.27c-.16,3.34-2.28,5.75-5.26,6-1.49.11-3,0-4.49.12s-2.05,1.23-1.32,2.76c4.15,8.73,8.52,17.29,15,24.15,2.82,3,5.07,6.38,5.61,11.11a5,5,0,0,0,6,4.69c.71-.13,1,.18,1.14.92a2.63,2.63,0,0,1-1,2.63c-1,.78-1.24,1.43,0,2.34,2.9,2.08,4.53,5.09,5.3,9,.38,1.93.93,3.33.05,5.41-.6,1.43.95,3.14,1.95,4.32a51,51,0,0,0,4.68,4.5c.47.44,1.09.79.87,1.67a1.18,1.18,0,0,1-1.29.91c-1.55,0-1.53,1.23-1.1,2.24A77.38,77.38,0,0,1,251,235.15c.65,2.38,1,4.84,1.58,7.25,1,4,2,8.11,3,12.16.74,3,2.49,3.76,5.16,2.55,4.14-1.88,8.32-3.65,12.52-5.38,3.3-1.37,6.54-2.91,9.83-4.3,5.83-2.44,10.7-6.62,15.71-10.58,3.12-2.47,5-5.92,6.32-10a83.54,83.54,0,0,1,5.59-13c1.44-2.79,2.8-5.63,4.22-8.49-5.41.72-10.45,2.63-15.74,2.67a9.78,9.78,0,0,1-1.63-.1,1.18,1.18,0,0,1-1.05-1.22,1.34,1.34,0,0,1,.79-1.25c2.53-1.54,5.36-2.1,8.06-2.95,2.19-.69,4.43-1.39,6.61-2.12,2.92-1,5.92-1.57,8.82-2.65a17.31,17.31,0,0,0,3.91-2.41c3.29-2.36,6.58-4.71,10.58-5.08a4.42,4.42,0,0,1,4.52,2c1.55,2.23,3.88,1.47,5.69.78,3.44-1.32,7.11-1,10.53-2.39a33.73,33.73,0,0,1,4.16-1c2.29-.62,4.5.61,6.7,1.22,1.08.29.58,1.39,0,2a8.75,8.75,0,0,1-6,2.88,113.5,113.5,0,0,0-16.44,2.75c-1.51.38-3.31-.27-4.24,2a2.82,2.82,0,0,0,0,2.81,5.47,5.47,0,0,1,0,5.53,2.78,2.78,0,0,0-.54,1.74c.86,4.51-1.39,8-2.88,11.71s-2.9,7.69-4.73,11.35a22.42,22.42,0,0,1-5.56,7.38C319,247.26,311.1,253.13,304,260.42c1.88.34,3.52,1.52,5.28,2.39a3.91,3.91,0,0,0,2.61.21c5.94-1.15,11.86-2.42,17.8-3.46a50.07,50.07,0,0,1,7.92-.65c5.78-.1,11.57-.08,17.35,0,4.4,0,7.94,2.33,10.81,6a4.79,4.79,0,0,1-.22,6.1c-2.39,2.87-5.56,4.07-8.69,5.23-2.95,1.08-6,1.75-9,2.59a5.07,5.07,0,0,1-1.39.35c-4.23,0-8.36,1.17-12.42,2.07s-8.11.47-12,2.09a8.69,8.69,0,0,1-3,.45c-2.65.07-5.31.19-8,0-6.41-.39-12.51,1.19-18.49,3.62a12.66,12.66,0,0,1-8,.35c-2.35-.61-4.73-.54-7.05-1-2.73-.61-5.06.69-7.37,2.06a2.92,2.92,0,0,0-1.44,2.65,48.36,48.36,0,0,0,.23,7.52,97.29,97.29,0,0,1,.95,12.88c.16,4.41,1.28,8.56,2.1,12.82.48,2.5,1.09,5,1.6,7.45.62,3,1,6.15,1.81,9.11a31.71,31.71,0,0,1,1,9c0,1.17,0,2.63-.83,3.3-1.88,1.55-1.35,3.34-.59,5.07,1.92,4.41,3.18,9.13,4.74,13.7,2.1,6.15,3.71,12.53,5.74,18.71,1.35,4.09,2.25,8.31,3.24,12.49a48.2,48.2,0,0,1,1.53,9.63c.17,6,1.53,11.78,1.55,17.76,0,8,1.33,15.91,1.45,23.93a145.89,145.89,0,0,0,2.11,22.37,14.07,14.07,0,0,1,.25,2.33c0,6.68,1.53,13.16,1.79,19.81.09,2.41.75,4.78.7,7.24a15.81,15.81,0,0,1-.87,6,11.35,11.35,0,0,0-.24,6c.88,5.2,1.56,10.45,3.2,15.46,1.29,3.92,2.15,8,3.28,12,1,3.39,2,6.74,3.09,10.1,1.13,3.68,2.15,7.41,3.44,11s2.17,7,3.17,10.54c.81,2.9,1.35,5.89,2,8.84.11.51,0,1.1.38,1.49.83-.18.88-1,1.06-1.6,2.12-7.53,3.89-15.19,6.37-22.59.6-1.76.62-3.28-1.19-4.33-1.36-.78-1.51-2.37-.94-3.9,2.36-6.29,4.8-12.54,7.13-18.83s4.62-12.82,7-19.2c1.95-5.31,4-10.57,6-15.87s3.83-10.49,5.77-15.72c2.3-6.23,4.63-12.45,6.94-18.68q2.87-7.72,5.71-15.45c1.48-4,2.92-8.07,4.41-12.09,1.6-4.29,3.34-8.52,4.83-12.86,2.11-6.16,4.58-12.14,6.87-18.21,1.21-3.21,2.14-6.57,3.31-9.81,1.94-5.37,4-10.71,6-16.05,1-2.57,2.1-5.06,3-7.68a7.19,7.19,0,0,0-1.36-6.55c-2.48-3.44-1.44-7-.37-10.4.74-2.34,1.09-4.8,1.67-7.16a37.64,37.64,0,0,0,1.54-6.77c.09-1.36-.18-1.81-1.44-2.13-3.95-1-8-1.49-11.87-2.95-1.35-.5-1.82-1.32-1.38-3.2,1.42-6.1,3.08-12.13,4.65-18.17,1.52-5.88,3-11.8,4.47-17.69,1.1-4.3,2.19-8.65,3.25-13,1.42-5.74,2.81-11.51,4.35-17.22,1.17-4.38,2.31-8.8,3.36-13.23,1-4.1,2.06-8.2,3-12.3,1.08-4.51,2.51-8.88,3.41-13.46.78-4,2-7.9,3.1-11.8a61.94,61.94,0,0,0,1.51-6.3c.81-4.45,2.18-8.71,3.29-13,1.48-5.8,2.93-11.63,4.4-17.43,1.53-6.06,3.08-12.12,4.57-18.2,1.45-5.9,2.85-11.83,4.48-17.68,1.19-4.27,2.1-8.71,3.25-13,1.61-6,2.89-12.14,4.58-18.13,1.16-4.12,2.26-8.29,3.1-12.55.79-4,2-7.89,3-11.85,1.14-4.49,2.25-9,3.37-13.49,1-4,2-8,3-12.06,1.14-4.5,2.21-9,3.46-13.48.81-2.87,1.14-5.93,2.43-8.63a3.39,3.39,0,0,1,2.12-2c1.67-.43,3.22-1.37,4.85-1.72,3.66-.78,7.09-2.42,10.7-3.4,5.16-1.41,10.12-3.82,15.26-5.34,3.72-1.09,7.38-2.45,11.07-3.61,3.47-1.09,6.92-2.44,10.4-3.56,3.89-1.27,7.69-2.93,11.68-3.88a54.2,54.2,0,0,0,9.42-3.27c2.1-.92,4.29-1.38,6.4-2.18,2.76-1,5.58-1.89,8.33-2.95A7,7,0,0,1,541,11c1.4-.07,1.92.73,1.8,2.36a41.75,41.75,0,0,1-1.91,8.1c-.72,2.58-1.2,5.26-1.88,7.84-1.39,5.21-2.73,10.45-3.92,15.72-1,4.27-2,8.53-3,12.77s-1.94,8.58-3.14,12.8a51,51,0,0,0-2,8.32,56.51,56.51,0,0,1-1.39,5.6c-1.37,6.16-3.32,12.16-4.58,18.36-.91,4.47-2.08,8.86-3.17,13.25-1.54,6.2-2.9,12.46-4.55,18.63-1.17,4.36-2.24,8.77-3.18,13.23-1.28,6.11-3.19,12-4.55,18.13-1,4.43-2.1,8.84-3.2,13.22s-1.88,8.73-3.21,13c-.66,2.1-1.08,4.35-1.64,6.52q-2.58,9.91-4.82,19.93c-1.05,4.67-2.4,9.25-3.38,14-.88,4.18-2.13,8.32-3.11,12.49s-1.91,8.12-3,12.14c-1.25,4.83-2.43,9.69-3.61,14.53-1,4.11-2,8.22-2.91,12.37-1,4.62-2.45,9.09-3.45,13.7-.55,2.57-1.54,5-1.77,7.65a31.43,31.43,0,0,1-1.52,6.24c-1.27,4.29-2,8.75-3.32,13a89.94,89.94,0,0,0-2.81,12.61c-.53,3.36,1.19,6.45,1.6,9.77.5,4,1.7,7.82,2.51,11.76.6,2.94,1,5.93,1.82,8.85s1.16,6.21,1.77,9.31,1.13,6.08,2,9c.7,2.46.84,5,1.4,7.53.73,3.23,1.34,6.57,2.07,9.78s.79,6.31,1.91,9.3a32.39,32.39,0,0,1,1.31,6.78c.77,5.49,2.32,10.73,3.3,16.15.56,3.08,1.18,6.23,1.87,9.32.63,2.88,1.38,5.82,1.74,8.84a69.65,69.65,0,0,0,2,9.24c.6,2.32.91,4.72,1.39,7.06.69,3.32,1.34,6.69,2,10,.59,2.92,1,5.93,1.86,8.82.8,2.6,1,5.44,1.57,8.16,1.3,6,2.55,11.95,3.71,17.94.59,3,1.2,6.08,1.81,9.1s.87,6.44,1.92,9.52a48,48,0,0,1,1.43,7.26c.94,5.52,2.36,10.91,3.32,16.42.48,2.8.76,5.78,1.85,8.55.83,2.11.93,4.66,1.37,7,1.21,6.41,2.83,12.7,3.88,19.13.53,3.2,1.23,6.4,1.86,9.54.59,2.9.76,6,1.88,8.8.8,2,.87,4.4,1.25,6.58.6,3.37,1.53,6.64,2.08,10a44.26,44.26,0,0,0,1.85,8.81c.82,2.16.76,4.57,1.25,6.84.62,2.92,1.4,5.84,1.78,8.87s1.17,6.09,1.8,9.13c.75,3.63,1.4,7.33,2.32,10.88.79,3,.69,6.3,1.95,9.24.71,1.66.55,3.69.45,5.56a2.1,2.1,0,0,1-2.11,2.12c-1.37.07-3,.79-3.86-1.1a19.67,19.67,0,0,1-1.57-5.53,66.05,66.05,0,0,0-1.92-9.23,70.08,70.08,0,0,1-1.36-7.29c-.51-3.49-1.45-6.84-2.1-10.25a77.73,77.73,0,0,0-1.89-9.32c-.75-2.35-.93-5-1.48-7.49-.84-3.82-1.67-7.67-2.32-11.52-.53-3.16-1.22-6.27-1.9-9.35-.76-3.39-1.31-6.84-2-10.24-.6-3.1-1.63-6.12-1.75-9.35-.08-2.29-1.14-4.29-1.65-6.46-.41-1.74-2.43-2.05-3.73-2.46-3.34-1.06-4.11-4.14-4.71-7.21-.85-4.34-1.79-8.66-2.53-13-.53-3.13-1.19-6.26-1.8-9.34s-.73-6.44-2-9.47c-.81-2-.67-4.4-1.18-6.61a94.43,94.43,0,0,1-2-10,72.07,72.07,0,0,0-1.81-8.81c-.69-2.84-1.13-5.76-1.67-8.63-1.15-6-2.45-11.94-3.63-17.92-.66-3.34-1-6.78-1.88-10.05s-.89-6.44-2-9.51a40.21,40.21,0,0,1-1.34-6.81c-.94-5.76-2.29-11.41-3.34-17.13-.54-2.91-1.08-5.91-1.76-8.83s-1.39-6-1.81-9.1-1.27-6.36-1.92-9.54-1.35-6.37-2-9.56c-.74-3.72-1.51-7.44-2.12-11.17-.51-3.12-1.48-6.11-1.76-9.31-.21-2.45-1-4.82-1.45-7.28-.95-5.42-2.5-10.72-3.33-16.16-.49-3.22-1.21-6.4-1.84-9.55s-.7-6.7-2.1-9.73c-.29-.63-.47-1.45-1.2-1.41-3.23.2-6.16-1.85-9.42-1.63-1.17.08-1.58.31-1.89,1.68-1.14,5-1.48,10.15-2.52,15.11-1.41,6.77-2.21,13.65-3.45,20.45-.67,3.67-1.18,7.51-1.84,11.19-.7,3.86-1.1,7.8-1.84,11.67-.77,4.08-1.34,8.28-2.07,12.39s-1.34,8.15-2,12.2c-.61,3.8-1.28,7.65-1.86,11.46s-.78,7.7-1.88,11.42a47.46,47.46,0,0,0-1.4,8.72c-.43,4.37-1.46,8.61-2.08,12.91-.5,3.46-.44,7.2-1.9,10.48a2.53,2.53,0,0,0-.22.9c-.27,6.49-1.82,12.74-2.81,19.08-1.08,6.81-2.26,13.63-3.41,20.44-.63,3.71-1.21,7.52-1.82,11.23s-.78,7.74-1.91,11.47c-.77,2.57-.84,5.37-1.24,8-.62,4.15-1.38,8.31-2.08,12.43-.64,3.8-.7,7.77-1.95,11.43a6.38,6.38,0,0,0-.31,1.36c-.86,7.58-2.41,15-3.48,22.53-.6,4.23-1.43,8.43-2.07,12.64-.57,3.71-.72,7.57-1.9,11.21-.84,2.6-.86,5.51-1.28,8.24-.53,3.51-1.24,7-1.65,10.59-.49,4.32-1.51,8.56-2.22,12.85-.55,3.37-1,6.74-1.65,10.1-.81,4.55-1.35,9.16-2.28,13.7-.59,2.86-1,5.84-1.3,8.73-.8,6.83-2.35,13.48-3.23,20.29-.69,5.29-1.5,10.61-2.51,15.82-1.35,6.93-2.11,14-3.58,20.87-.15.68-.14,1.54-.72,1.88-2,1.2-3.66-.57-5.37-1.21-1.22-.46-1.18-2.06-.9-3.49,1-4.94,1.53-10,2.43-14.93.67-3.71.57-7.62,1.93-11.17a3.94,3.94,0,0,0,.25-1.13c.31-7.46,2.35-14.59,3.08-22,.24-2.46,1.06-4.84,1.11-7.39,0-1.37-.22-2.07-1.53-2a40.65,40.65,0,0,1-11.19-.53c-7.18-1.6-14.52-.66-21.67-2.33-3.76-.87-7.42.59-11.14.73-6.17.23-12.36.89-18.47-.76-2.54-.69-5.18-.21-7.74-1.63-3.9-2.16-6.35-8-5.36-12.86C301.42,671.6,303.21,667.34,302.28,662.29ZM417.59,361.81c0-1.82,0-3.07,0-4.33,0-.71,0-1.46-.68-1.83-1.64-.9-3.29-1.78-4.94-2.66-.51-.27-1.05-.16-1.13.51a17.33,17.33,0,0,1-1.32,3.66c-1.89,5.52-3.74,11-5.68,16.55s-4.11,11.19-6.09,16.82c-1.93,5.47-3.73,11-5.65,16.49-2.37,6.79-4.8,13.55-7.21,20.32q-3,8.55-6.11,17.08c-1.42,4-2.89,7.92-4.29,11.9-1.54,4.4-3,8.84-4.54,13.24-1.89,5.34-3.86,10.64-5.75,16-2,5.72-3.94,11.47-5.95,17.19-1.9,5.42-3.88,10.8-5.79,16.21s-3.85,11.12-5.81,16.66c-1.87,5.26-3.83,10.46-5.67,15.72-2.35,6.72-4.56,13.5-6.94,20.21-1.93,5.47-4.16,10.81-6,16.31-2,5.89-4.12,11.7-6.05,17.6-.76,2.32-2.4,4.43-1.71,7.29a116.28,116.28,0,0,0,4.07,14.17A134,134,0,0,0,336,651.26c1.57,2.5,3.44,4.91,6,6.25a191.71,191.71,0,0,1,17.19,10.06,49.2,49.2,0,0,0,19.92,8c1,.16,2.05,0,2-1.22-.05-3.21,1.21-6.12,1.37-9.22.22-4.49,1.38-8.77,2-13.15.43-2.77.26-5.75,1.15-8.3,1.25-3.55,1.16-7.34,1.89-11,1.06-5.35,1.47-10.91,2.57-16.31.74-3.59.16-4.58-2.9-5.61-1.51-.5-2.19-1.62-1.53-3.38s.61-3.68,1-5.49c.68-3.51.93-7.1,1.69-10.56.81-3.63,1.18-7.35,1.79-11,.81-4.82,1.58-9.67,2.39-14.49.63-3.76,1.3-7.52,1.77-11.31s1.21-7.65,1.77-11.49c.61-4.21,1.34-8.42,2-12.63s1.34-8.3,2-12.45c.64-3.82,1.52-7.61,1.92-11.46s1.39-7.59,1.77-11.48c.41-4.23,1.42-8.38,2-12.6.54-3.87,1.15-7.75,1.88-11.53.59-3,.64-6.19,1.47-9.18,1-3.63,1.07-7.48,1.86-11.19.86-4.08,1.19-8.3,1.84-12.45.71-4.52,1.56-9,2.25-13.55.53-3.46,1-7,1.73-10.33.83-3.71,1.23-7.51,1.8-11.22.63-4,1.26-8.14,1.9-12.17.66-4.2,1-8.52,2.13-12.63.55-2,.12-3.17-2-3.49-3-.44-3.85-2.09-3.53-5.44A49.07,49.07,0,0,0,417.59,361.81Z" fill="#122744"/></svg>