<svg xmlns="http://www.w3.org/2000/svg" width="53.996" height="53.996" viewBox="0 0 53.996 53.996"><defs><style>.a{fill:none;stroke:#a3d0cb;stroke-width:2px;}.b{fill:#a3d0cb;}</style></defs><g transform="translate(1.001 1)"><g transform="translate(-0.001)"><path class="a" d="M26,0A26,26,0,1,0,52,26,26,26,0,0,0,26,0Z"/></g><g transform="translate(13.753 11.24)"><path class="b" d="M34.529,43.352H26.661s.011-2.335,0-3.935c-5.386,1.16-6.889-2.952-6.889-2.952A12.112,12.112,0,0,0,17.8,33.513c-1.969-1.168,0-.983,0-.983A3.638,3.638,0,0,1,20.756,34.5a4.673,4.673,0,0,0,5.9,1.969,4.827,4.827,0,0,1,.983-2.952c-4.3-.483-7.875-2.952-7.875-7.872s.988-5.9,1.972-6.889a6.1,6.1,0,0,1,.03-4.92s1.934,0,3.9,2.952c.975-.975,3.935-.983,4.92-.983s3.944.008,4.919.983c1.969-2.952,3.907-2.952,3.907-2.952a6.092,6.092,0,0,1,.03,4.92c.983.983,1.969,1.969,1.969,6.889s-3.572,7.387-7.872,7.872a5.317,5.317,0,0,1,.983,2.952l0,6.885Z" transform="translate(-16.929 -13.835)"/></g></g></svg>