<svg xmlns="http://www.w3.org/2000/svg" width="23.268" height="23.268" viewBox="0 0 23.268 23.268"><defs><style>.a{fill:none;stroke:#fbfafa;stroke-width:2px;}.b{fill:#fbfafa;}</style></defs><g transform="translate(1 1)"><path class="a" d="M10.634,0A10.634,10.634,0,1,0,21.268,10.634,10.634,10.634,0,0,0,10.634,0Z"/><g transform="translate(5.626 4.597)"><path class="b" d="M24.128,25.908H20.91s0-.955,0-1.61a2.268,2.268,0,0,1-2.818-1.207,4.954,4.954,0,0,0-.805-1.207c-.805-.478,0-.4,0-.4a1.488,1.488,0,0,1,1.207.805,1.912,1.912,0,0,0,2.415.805,1.974,1.974,0,0,1,.4-1.207c-1.758-.2-3.221-1.207-3.221-3.22s.4-2.415.807-2.818a2.493,2.493,0,0,1,.012-2.012s.791,0,1.6,1.207c.4-.4,1.61-.4,2.012-.4s1.613,0,2.012.4c.805-1.207,1.6-1.207,1.6-1.207a2.492,2.492,0,0,1,.012,2.012c.4.4.805.805.805,2.818s-1.461,3.021-3.22,3.22a2.175,2.175,0,0,1,.4,1.207v2.816Z" transform="translate(-16.929 -13.835)"/></g></g></svg>