<svg xmlns="http://www.w3.org/2000/svg" width="53.996" height="53.996" viewBox="0 0 53.996 53.996"><defs><style>.a{fill:none;stroke:#a3d0cb;stroke-width:2px;}.b{fill:#a3d0cb;}</style></defs><g transform="translate(1 1)"><g transform="translate(0)"><path class="a" d="M26,0A26,26,0,1,0,52,26,26,26,0,0,0,26,0Z" transform="translate(0)"/></g><path class="b" d="M34.666,32.855V22.883c0-5.343-2.852-7.829-6.656-7.829A5.734,5.734,0,0,0,22.8,17.927V15.462H17.02c.076,1.633,0,17.393,0,17.393H22.8V23.142a3.951,3.951,0,0,1,.19-1.409,3.163,3.163,0,0,1,2.965-2.114c2.093,0,2.93,1.594,2.93,3.932v9.306l5.78,0ZM10.928,13.088a3.015,3.015,0,1,0,.037-6.01,3.013,3.013,0,1,0-.073,6.01Zm2.891,19.767V15.462H8.039V32.855h5.78Z" transform="translate(4.809 4.423)"/></g></svg>