<svg xmlns="http://www.w3.org/2000/svg" xmlns:xlink="http://www.w3.org/1999/xlink" width="47.9" height="36.6" viewBox="0 0 47.9 36.6"><defs><style>.a{fill:#a3d0cb;}.b{clip-path:url(#a);}</style><clipPath id="a"><rect class="a" width="47.9" height="36.6" transform="translate(0 0)"/></clipPath></defs><g class="b"><path class="a" d="M47.4,5,45.5,3.1,27.9,20.7a5.8,5.8,0,0,1-8.1,0L2.2,3.2.3,5.1,13.4,18.2.3,31.3l1.9,1.9L15.3,20.1l2.6,2.6a8.212,8.212,0,0,0,11.8,0l2.6-2.6L45.4,33.2l1.9-1.9L34.2,18.2,47.4,5"/><path class="a" d="M43.7,36.6H4.2A4.224,4.224,0,0,1,0,32.4V4.2A4.225,4.225,0,0,1,4.2,0H43.7a4.226,4.226,0,0,1,4.2,4.2V32.4a4.225,4.225,0,0,1-4.2,4.2M4.1,2.7A1.367,1.367,0,0,0,2.7,4.1V32.3a1.368,1.368,0,0,0,1.4,1.4H43.6A1.367,1.367,0,0,0,45,32.3V4.1a1.366,1.366,0,0,0-1.4-1.4Z"/></g></svg>