<svg xmlns="http://www.w3.org/2000/svg" width="13.256" height="22.268" viewBox="0 0 13.256 22.268"><defs><style>.a,.b,.c{fill:#cd8c50;stroke:#faf9f9;}.b,.c{stroke-linejoin:round;stroke-width:2px;}.c{stroke-linecap:round;}</style></defs><g transform="translate(0.5 0.5)"><path class="a" d="M10.568.844a.844.844,0,0,1,.844.844V19.58a.844.844,0,0,1-.844.844H1.688a.844.844,0,0,1-.844-.844V1.688A.844.844,0,0,1,1.688.844h8.88m0-.844H1.688A1.7,1.7,0,0,0,0,1.688V19.58a1.7,1.7,0,0,0,1.688,1.688h8.88a1.7,1.7,0,0,0,1.688-1.688V1.688A1.7,1.7,0,0,0,10.568,0Z"/><line class="b" x2="10.924" transform="translate(0.666 16.326)"/><line class="c" x2="1.491" transform="translate(5.383 18.501)"/></g></svg>