<svg xmlns="http://www.w3.org/2000/svg" viewBox="0 0 20 40"><path d="M6.67,18.5a2.83,2.83,0,0,1-2-.82,2.89,2.89,0,0,1-.85-2.18,9,9,0,0,1,.2-2c.13-.6.24-1.24.34-1.9a8.61,8.61,0,0,0-.06-2.35,15,15,0,0,0-1-3.34,1.36,1.36,0,0,1,.11-1.42,1.41,1.41,0,0,1,1.19-.62A2.35,2.35,0,0,1,6.24,4.9a14.88,14.88,0,0,1,1.7,2.72A20.67,20.67,0,0,1,9.27,11a10.58,10.58,0,0,1,.51,3A5.81,5.81,0,0,1,9,17.28,2.62,2.62,0,0,1,6.67,18.5Zm8.16,0a2.8,2.8,0,0,1-2-.82,2.89,2.89,0,0,1-.85-2.18,9,9,0,0,1,.2-2c.13-.6.24-1.24.33-1.9a8.19,8.19,0,0,0-.05-2.35,15.58,15.58,0,0,0-1-3.34,1.36,1.36,0,0,1,.11-1.42,1.41,1.41,0,0,1,1.19-.62,2.45,2.45,0,0,1,1.7,1.07,13.42,13.42,0,0,1,1.7,2.72A22.5,22.5,0,0,1,17.43,11a10.58,10.58,0,0,1,.51,3,5.81,5.81,0,0,1-.82,3.31A2.62,2.62,0,0,1,14.83,18.5Z" fill="#c7a9c3"/></svg>