<svg xmlns="http://www.w3.org/2000/svg" viewBox="0 0 20 40"><g style="isolation:isolate"><g style="isolation:isolate"><path d="M7.28,3.37A1.43,1.43,0,0,1,8.44,4a1.3,1.3,0,0,1,.14,1.41,13.57,13.57,0,0,0-1,3.35,9.94,9.94,0,0,0,0,2.35A14.2,14.2,0,0,0,7.85,13a8.45,8.45,0,0,1,.22,2,2.86,2.86,0,0,1-2.94,3,2.62,2.62,0,0,1-2.27-1.22A5.65,5.65,0,0,1,2,13.52a10.16,10.16,0,0,1,.54-3A25.52,25.52,0,0,1,3.88,7.17a13.14,13.14,0,0,1,1.7-2.72A2.42,2.42,0,0,1,7.28,3.37Zm8.28,0A1.43,1.43,0,0,1,16.72,4a1.3,1.3,0,0,1,.14,1.41,12.76,12.76,0,0,0-1,3.35,10.57,10.57,0,0,0-.06,2.35,16,16,0,0,0,.34,1.9,8.42,8.42,0,0,1,.23,2,2.86,2.86,0,0,1-3,3,2.63,2.63,0,0,1-2.27-1.22,5.73,5.73,0,0,1-.85-3.31,10.16,10.16,0,0,1,.54-3,25.58,25.58,0,0,1,1.34-3.34,12.35,12.35,0,0,1,1.7-2.72A2.42,2.42,0,0,1,15.56,3.37Z" fill="#c7a9c3"/></g></g></svg>