<svg xmlns="http://www.w3.org/2000/svg" viewBox="0 0 676 768"><path d="M352.25,473.65c8.08,10.94,14.87,21.59,22,32a29.31,29.31,0,0,1,4.85,16.37c.12,7.29-1,14.56-2.14,21.78a55,55,0,0,0-.25,15.53c1.27,9.45,2,19,3.69,28.36,1.13,6.12,1.43,12.41,2.63,18.52,2,10,6.66,19.15,11,28.28a76.08,76.08,0,0,1,6.5,23.73c.67,5.26,2.43,10.3,3.2,15.57a125.09,125.09,0,0,1,1,28.54c-.3,3.64-2.49,5.23-6,4.48-7.52-1.6-14.54-4.05-19.26-10.75a20.45,20.45,0,0,1-3.23-7.76c-1.35-6.44-1.71-13.09-4.09-19.32a8.74,8.74,0,0,0-2.11-3.9c-1.16,1.37-.61,2.93-.64,4.31,0,1.81,0,3.6-1.23,5.05-1.05,1.26-1.54,4-3.56,3.18-2.24-.95-4.58-2.75-4.19-5.91a58.94,58.94,0,0,0-.61-15.85,17,17,0,0,1,3.73-13.63c3.58-4.18,3.76-8.6,1.91-13.21-4.87-12.15-9.93-24.23-15-36.3-3.84-9.12-9-17.69-11.37-27.4-.13-.53-.51-1-1.54-1.58-.71,3.43-1.57,6.85-2.11,10.31-1.58,10.14-4.35,20-6.43,30.06-2.61,12.59-9.6,23.6-12.46,36.07-2.91,12.64-5.78,25.26-5.37,38.39.2,6.74-1.47,8.71-8.05,10.45a15.1,15.1,0,0,0-7.92,5.06c-1.53,1.83-3.11,2-5.29,1a31.29,31.29,0,0,1-8.07-5c-3.53-3.17-5.36-3.61-8.92-.7-6.79,5.53-14.74,7.81-23.09,9.1a46.25,46.25,0,0,1-21-1.55c-5.42-1.69-6.09-5.11-1.82-9,2.87-2.63,5.77-5.47,9.45-6.78,7.17-2.55,9.26-8.49,10.9-14.91a11.91,11.91,0,0,1,.32-1.74c2.27-5,1.91-9.65-.83-14.46-4.65-8.17-8.72-16.65-13-25.13.87,10.87,4.22,21.23,6.08,31.93-5.72-7.68-8.15-16.76-12.11-25.4-.39,3.51-.79,7-1.3,11.6-2.64-3.08-3-6-3.12-8.93-.44-7.77-2.35-15.3-3.76-23a70.85,70.85,0,0,0-2,16.12c0,2.12.71,5.66-1.78,5.77-2.73.13-2-3.55-2.15-5.53-.38-3.66-.11-7.38-.67-11.09-1.69,4.36-1.68,8.91-2.34,13.36-.15,1,.19,2.46-1.14,2.67s-1.48-1.26-1.79-2.23c-.81-2.51-1.58-5-2.45-7.8-2.3,2.11-1.2,5.16-3.6,7.57-2.08-7-.22-13.94-2.55-20.45-2,6.85-1.66,14-2.88,21.19-4.17-7.24-3.33-15.67-5.91-23.7-1.51,3.73-3.15,7.41-4.5,11.19-2.33,6.55-5,13-6.66,19.77a100.45,100.45,0,0,0-2.54,19.2c-.19,4.73-.8,9.41-1.07,14.11-.36,6.15-.05,12,4.58,17.12,5.72,6.34,2.36,14.38-5.87,16.42-5.34,1.32-10.3.1-15.3-.81-4.49-.82-5.53-.71-5.5,3.76,0,3.08-.61,4.8-4,4.69-3.15-.1-5.35-2-5.47-5.29-.16-4.36-.07-8.73-.12-13.1a20.8,20.8,0,0,0-2.07-8.89c-4.74-9.83-4.15-15.28,5-20.86S157.29,650.46,158,641.7c1.35-15.85,1.41-31.83,3.18-47.63,2.6-23.19,9.37-45.22,21.61-65.31a22.64,22.64,0,0,0,3.12-8.57c2-13.63,6.55-26.8,8.31-40.45,2.29-17.81,7.35-35,10.4-52.66a208.72,208.72,0,0,0,2.22-22.87c1.18-18.91,12.12-30.6,28.44-38.06a124.27,124.27,0,0,0,15-8.65c2.41-1.53,3.48-4.15,4.24-6.77,4-13.87,5.45-27.88,3.08-42.28a110.77,110.77,0,0,0-14.69-39.91c-5.55-9.16-13.56-13.43-24.42-13.26-13.34.2-26.65,1.07-40,.88a225.43,225.43,0,0,1-36.58-3.31c-9.38-1.68-18.92-2.49-28.17-4.89-5-1.29-9.46-4.23-14.92-4.05A19.73,19.73,0,0,0,88.5,247c-1.48,1-2.88,2.09-4.43,2.93-4,2.15-6.86,4.68-7.18,9.94-.29,4.73-2.32,6-7.49,6a22,22,0,0,1-13.35-4,10.14,10.14,0,0,1-4.21-8.55c-.07-3.82-.82-4.11-4.21-2.28-2.28,1.24-4.08,3.3-6.66,4-1.69.45-3.79,1.08-4.8-.83-.93-1.76.13-3.56,1.72-4.56,5.55-3.48,9.16-9,14.09-13.16.87-.73,2.2-1.5,2-2.75-.27-1.53-1.94-.93-3-1.24-3.95-1.18-8.07-2-11.14-5.07-.88-.87-2.3-1.72-1.33-3.23A2.85,2.85,0,0,1,42,223.12c8.3,2.9,17,3.57,25.61,5a18.74,18.74,0,0,0,13.26-2.33A28.22,28.22,0,0,1,103,222.33c9.89,2.37,20.12,2.44,30.22,3.22,14.1,1.08,28.24,1.7,42.36,2.61,15.09,1,30.11,1,44.6-4.84A37,37,0,0,1,240,221.1a51.05,51.05,0,0,0,8.49.25c6.62,0,8.78-3.83,5.51-9.63-1.09.16-1.35,1.22-2,1.88-5.38,5.89-10.32,6.82-17.41,3.3-10.69-5.31-14.45-21.31-12.08-30.51a11.39,11.39,0,0,1,6.93-7.61c2-.86,2.46-2.17,1.66-4.25-1.87-4.86-3.39-10-3.36-15.11.13-18.92,8.13-29.68,26.73-34.32,3.65-.91,7.42-1.37,11.07-2.3,5.68-1.44,10.72.2,15.63,2.79a8.07,8.07,0,0,1,4.08,4.73c2,6.66,6.7,11.51,10.9,16.68,1.59,2,4.18,2.61,6.34,3.8,2.69,1.49,3.85,3.44,2.19,6.37-1.19,2.1-.69,4,.29,6.06,2.28,4.78,4.69,9.52,5.35,14.91.5,4.09-.71,6.18-4.48,7.73-3.37,1.39-6.87,1.48-10.42,1.59-5.13.17-6.23,1.41-6.19,6.41a60.77,60.77,0,0,1-.47,10.95,12.94,12.94,0,0,0,0,3.88c.6,4.1,1.5,4.56,4.86,2.07,4.73-3.49,10.29-5.21,15.48-7.72a40.68,40.68,0,0,0,13.68-11,55,55,0,0,1,16.23-12.95c2.75-1.52,5.86-1.68,9-1.66,10.74.05,16.23-6.35,19.91-14.31a3.1,3.1,0,0,0-.81-3.82,5.11,5.11,0,0,0-5.82-1.35c-2.9,1-5.74,2.2-8.65,3.14-4.8,1.54-5.84.78-7.56-3.83s-4-9.32-6-14c-.72-1.65-2.12-2-3.77-2.07-3-.09-4.48-1.65-4.35-4.75.1-2.59-.21-5.22.1-7.78,1.16-9.62-3-18.28-4.76-27.36-.18-.92-.56-1.94-1.7-2-3-.25-3.53-2.34-3.76-4.71-1.34-14.17,3.17-25.52,18.25-30.86a225.78,225.78,0,0,1,27.53-7.81c4.12-.89,8.14-.26,12.2.94A107.68,107.68,0,0,1,406.57,69c4.52,2.88,6.72,6.72,6.82,12.32.23,12.33-1.28,24.5-3,36.62-.76,5.21-2,10.31-2,15.65,0,3.75,1.85,6.5,4,9.18a54.08,54.08,0,0,0,27.12,18.36,9.58,9.58,0,0,0,4.16.54c15.63-2.22,31.41-3.42,46.81-7.06a41.67,41.67,0,0,0,16.57-7.56q17.28-13.53,35.26-26.12c8.35-5.83,17.71-8.65,27.2-11.5,5.64-1.7,11.14-3.86,16.72-5.74,4.9-1.65,8.53-4.82,11.59-8.9,1.6-2.13,3-4.55,5.63-5.75,1.2-.55,1.12-2,1.33-3.14a32.34,32.34,0,0,1,8.86-17.38,56.26,56.26,0,0,0,4.22-5.22c1.09-1.38,2.44-2.38,4.25-2,2.27.47,2.81-.61,3.12-2.58.46-2.86,2.38-3.68,5-2.67a7.16,7.16,0,0,1,3.26,2c5.18,7.22,8.44,14.88,5.76,24.1-1,3.35-1.56,6.86-2.22,10.31-1.1,5.7-4.39,10.71-9.75,13.22-6,2.8-9.73,7.23-12.48,12.92-.92,1.91-2,3.73-3.11,5.55a5,5,0,0,1-5.39,2.65c-3.3-.69-5.66.69-7.46,3-8.7,10.92-20.25,18.65-30.67,27.64a75.08,75.08,0,0,1-18.35,11.23A101.27,101.27,0,0,0,530,180.33a20.36,20.36,0,0,0-4.92,5,63.8,63.8,0,0,1-26.65,23.11c-8.58,4.08-15.91,9.54-21.62,17.25-3.83,5.17-9,9-14.41,12.42-3.4,2.14-4.86,5.07-5.35,9-.88,7-3.76,13.37-6.28,19.85-2.3,5.93-5.39,11.53-6.9,17.78a38.79,38.79,0,0,0-.21,17.54,26.64,26.64,0,0,1-3.24,19.75c-2.47,4.29-2.22,8.51-.52,12.86,5.25,13.47,8.14,27.3,6.06,41.82-.55,3.81.86,7.25,1.89,10.71,6.64,22.27,14.66,44,22.74,65.84,4.47,12.05,8.24,24.52,9.49,37.55.72,7.49,4.45,14,8.84,19.84,9.12,12.23,17.65,24.8,24.25,38.59,6.94,14.48,13.08,29.3,19,44.2,5.09,12.7,9.14,25.78,14.19,38.48,2.12,5.32,6,9.6,8.65,14.6,5.77,10.82,14.14,19.68,22,28.92a48.06,48.06,0,0,1,9.72,16.72,13.05,13.05,0,0,1,.68,2.72c.67,7.1-.47,8.22-7.59,8.35a46.27,46.27,0,0,1-24.37-6,20.91,20.91,0,0,1-8.34-8.87c-1.37-2.61-2.8-5.19-4.09-7.85-1.2-2.45-2.77-3-5.06-1.4-4.81,3.28-10.32,4.53-15.95,5.39s-7.17.2-9.9-4.88a4.61,4.61,0,0,0-4.54-2.65c-10.79-.06-10.83-.1-10.76-10.79a32.78,32.78,0,0,0-4.71-16.82c-6-10.39-9.52-21.81-13.79-32.92-6.72-17.5-12.62-35.33-21-52.14-4.61-9.21-11-17.33-16-26.33-7.67-13.85-14.47-28.12-20.95-42.55-10.06-22.38-19.3-45.15-31.51-66.51a40.11,40.11,0,0,0-6.79-9.47c-3.76-3.6-6.48-3.08-8.67,1.76a188.18,188.18,0,0,0-6.82,18.61C363.29,449.9,360,460,356.78,470.1,356.13,472.16,355.5,473.91,352.25,473.65Zm-83,104.79c-2.29-.15-2.55-1.7-3.16-2.91-6.89-13.64-10.69-28.44-15.91-42.71-1.77-4.8-2.13-9.89-2.9-14.9-.25-1.6-.64-3.88-2.52-3.66-2.08.24-1.67,2.63-1.47,4.16.93,7,1.85,14,3.11,21a303,303,0,0,1,4.31,32.17,2.62,2.62,0,0,1-.8,2.58c-1.35,1-1.36-1.14-2.62-1.21.72,5.59,1.43,11.06,2.13,16.53.26,2,.58,4,.71,6,.06.88.07,2.1-1.19,2.21-1.07.1-1.13-1-1.41-1.75-.56-1.54-1.11-3.09-1.66-4.63.59,11.47-.06,22.79.25,34.09.08,3-1.49,5.88-.94,8.69,1.06,5.3,2.72,10.47,3.61,15.83.15.93.42,2.38,1.74,2.35,1.09,0,1.18-1.34,1.52-2.17,2.86-7,5.49-14,7.7-21.26a320.5,320.5,0,0,0,9.1-37.34c1.28-7.15,2.8-14.31,5.56-21.1,2-5,3.84-9.93.86-15.23a1.83,1.83,0,0,1,.77-2.73c.85,1.84,1.63,3.55,2.41,5.25.11-5.42-2.45-9.92-4.24-14.93l-1.05,1.59c-2.32-1.55-2.14-4.61-4.33-7.39,1.25,6.36,2.32,11.78,3.38,17.19-3.7-2.48-3.94-6.63-6-9.81.15,8.05,4,15.41,4.25,23.39-2.82-2-3.37-5.46-5.85-8.22C265.46,566.28,268.32,572.05,269.28,578.44ZM272,468c-2.52,28.4,1.77,55.63,8.63,82.62a2.13,2.13,0,0,0,1.82-1.62q6.43-18.53,11.8-37.39c1.34-4.73,1.7-9.86,4.28-14.08,1.21-2,1-2.72-.43-4-6.76-6-12.78-12.85-19.35-19.08C276.6,472.44,275.08,469.63,272,468Zm44.9-103.31c.46-.06.65,0,.68-.1,6.87-12.62,13.94-25.14,20.48-37.93,2.32-4.53,3.92-9.62,1.61-14.93a41.31,41.31,0,0,1-1.47-5.09c-.24-.85.13-2.19-1.05-2.38s-1.8,1-2.29,1.9a56.45,56.45,0,0,0-4,10.91c-1.16,4.17-2.13,8.6-5.43,11.67a8.63,8.63,0,0,0-2.76,4.72c-1,4.26-1.91,8.51-2.69,12.8C318.93,352.37,318,358.49,316.93,364.7Zm-8.59-125.4a6.74,6.74,0,0,0,1.25,4.81,37.52,37.52,0,0,0,10.84,8.9c1.78,1,2.11.48,2.23-1.38.48-7.62,1.13-15.23,1.72-22.85.07-.81.45-1.75-.28-2.33s-1.55.13-2.23.52c-2.87,1.63-5.82,3.12-8.53,5S308,235.63,308.34,239.3Zm4.36,142.91-.87-.2c-3.1,8.19-6.83,16.16-8.92,24.72-1,3.91.15,7.38,4,10.22C308.88,405.11,310.79,393.66,312.7,382.21Zm-250-128.49c-.1,3.17,2.26,4,4,5.21s3.19.38,3.43-1.78a38.36,38.36,0,0,1,1.08-6.94c.66-2.18-.89-3-2.82-2.9A6.07,6.07,0,0,0,62.66,253.72Z" fill="#122744"/></svg>