<svg xmlns="http://www.w3.org/2000/svg" viewBox="0 0 676 768"><path d="M357.77,619.62a3.38,3.38,0,0,0-1,2.43c-.77,7.43-2.49,14.81-1.45,22.36a12.39,12.39,0,0,1-.46,4.2c-1.42,6.85-3.12,13.64-4,20.59-.48,3.87-.73,7.79-.83,11.69-.18,7-.4,14-1,21-.39,4.61-2.13,6-6.65,5.53-7.37-.69-14.76-1.3-22.15-1.75-2.28-.13-3.65-.84-4-3.13-1.49-9.27-3.34-18.4-.72-27.91,2.5-9.06,4.15-18.33,8-27,1.72-3.84,2.72-8,4-12.05a83,83,0,0,1,5.61-13.88c5.23-9.9,7.32-20.65,8.3-31.68a18,18,0,0,0-1.47-8.52c-4.54-11.09-9.09-22.18-13.41-33.36a132,132,0,0,1-5.49-16.32c-1.55-6.41-4.6-12.25-6.81-18.4-3.26-9.05-3.88-18.56-5.32-27.93a104.17,104.17,0,0,1-1.1-16.93,5.6,5.6,0,0,0-.5-2.68,109.89,109.89,0,0,1-6.62-16.08A274.14,274.14,0,0,1,290.37,413c-.88-4.57-1.94-9.12-3.12-13.63-1.77-6.76-1.64-13.7-2.29-20.57-.53-5.66,0-11.29.31-16.94.32-4.91-.07-9.86.69-14.75.26-1.67-.49-2-1.88-2.12a36.09,36.09,0,0,1-14.54-5c-2.15-1.22-3.11-2.95-2.37-5.42,3.17-10.69,2.92-21.93,5.35-32.74.74-3.3,1.59-6.58,2.15-9.94-2.27,5.49-5.05,10.77-6.12,16.72a110.1,110.1,0,0,0-2.2,16.57,10.5,10.5,0,0,1-4.68,8.65c-3,2.14-5.85,4.57-5.29,8.92a1.11,1.11,0,0,1-.17.73c-3.08,4.47-2,9.48-1.56,14.28.71,8.23.09,16.5.88,24.72.94,9.7.64,19.45,1.27,29.18.82,12.59,1.61,25.2,1.81,37.83.18,11.73.59,23.45.94,35.18.1,3.33.33,6.65.49,10a2.83,2.83,0,0,0,.82,2c3.61,3.5,4.78,8.06,5.66,12.78,2.94,15.85,3.6,31.91,4.62,47.94,1.16,18.11,1.88,36.24,2.58,54.38.49,12.67.52,25.32.25,38-.22,10.14-.59,20.32-3.28,30.22-1.44,5.29-3.35,10.31-7.5,14.15a3.18,3.18,0,0,0-1.07,2.44c0,.58.16,1.37-.15,1.71-2.18,2.44-.23,4.26.81,6.22,2.15,4.08,1.19,7.9-1,11.62a4.24,4.24,0,0,1-3.21,2.09,37.75,37.75,0,0,1-7.73.33c-1.38,0-2.66-.51-2.44-2.14.48-3.42-1.31-5.73-3.53-7.84a9.17,9.17,0,0,1-3-5.33c-.23-1.46-1-1.86-2.46-1.74-9.54.84-19.12.64-28.68,1-3.26.14-4.44,2.21-2.7,4.84a11.12,11.12,0,0,1,1.34,8.88,2.85,2.85,0,0,1-2.36,2.28c-3.51.84-7.12.71-10.68.85-2.09.08-3.59-1.25-4.5-3.09a24.3,24.3,0,0,0-4.34-6.07,11.83,11.83,0,0,1-3.14-5.63c-1.43-6.87-5.69-12.24-9.53-17.76-3.73-5.36-5.14-11.32-5.89-17.56-1.35-11.26-1.24-22.6-1.63-33.91-.71-20.81-1.37-41.61-1.65-62.43-.08-6.09.29-12.15.12-18.22A210.25,210.25,0,0,1,168,518.1c1-6.93,3.43-13.21,9.3-17.65a13.6,13.6,0,0,1,4.42-2.25,104.79,104.79,0,0,1,23.13-3.77c5.9-.36,11.76-1.2,17.69-1a2,2,0,0,0,2.38-2,23.23,23.23,0,0,1,.67-2.92c1.19-4.6,3.42-6.55,7.49-6.61,3.2-.05,6.24,2.56,7.41,6.39a16.74,16.74,0,0,1,.61,2.68c.22,1.69,1.05,2.41,2.82,2.41,3.48,0,3.66,0,3.56-3.61-.47-17-1-34-1.49-50.94-.14-4.73-.08-9.46-.61-14.19a4.85,4.85,0,0,1,1.87-4.39,2.16,2.16,0,0,0,1-2.08c-.55-5.81-.07-11.66-.36-17.48-.16-3.13,0-6.31-2.15-9-.8-1-.72-2.53-.8-3.87-.14-2.32-.26-4.65-.4-7a4.62,4.62,0,0,1,.63-3.13c1.68-2.27,1.52-4.93,1.53-7.45,0-6.83-.21-13.66-.35-20.49,0-2.36,0-4.74-3.23-5.21a3.4,3.4,0,0,1-1.74-1.35c-3.49-4.59-6.34-9.49-6-15.51a16.51,16.51,0,0,1,3.36-8.9c2-2.76,4.13-4.6,7.68-4.47,1,0,1.35-.79,1.28-1.75a8.62,8.62,0,0,1,1.43-4.7,36.23,36.23,0,0,0,3.26-11c2.13-12.55,4.22-25.12,6.16-37.71,1.68-10.89,5.75-20.88,9.92-30.81,3.76-8.95,6.5-18,7.27-27.62,1.1-13.6,4.08-26.82,7.39-40,1.48-5.89,2.46-11.91,4.39-17.7,2.62-7.86,7.36-13.51,15.72-15.57a10.4,10.4,0,0,1,4.2-.42c6,1,12.12-.49,18.15.36,2.6.37,3.73-.89,4.22-3.37,1.48-7.62,2-15.36,3.16-23,2-13,3.23-26.22,8.85-38.34,4.84-10.41,13.11-16.14,24.69-17.33a47.31,47.31,0,0,1,18.72,1.34,31.45,31.45,0,0,1,19.14,15c5.66,9.78,8.19,20.5,9.62,31.56,1.15,8.83,2.35,17.66,3.31,26.51.6,5.54.75,11.12,1.17,16.68a207.88,207.88,0,0,0,3.3,24.74,17.08,17.08,0,0,0,5,8.81c10.22,10,20.14,20.34,29.68,31,5.38,6,11.33,11.52,17,17.25,7,7,13,14.95,18.91,22.88,2.38,3.21,5.09,6.15,7.27,9.53a31,31,0,0,1,4.93,21,5.57,5.57,0,0,1-4.08,5.15c-2.55.76-5.12,1.49-7.72,2.06-7.82,1.7-15.5,3.81-23.14,6.21-12.75,4-26,4.52-39.27,5.11-6,.26-12,.65-17.95,1-.57,0-1.26-.06-1.54.59s.22,1.12.64,1.51c3.51,3.29,4.81,8.19,8.34,11.47a1.53,1.53,0,0,1,.27,1.87c-1,1.87-.29,3.49.48,5.21,1.58,3.49,3.1,7,4.52,10.57a6,6,0,0,1-1.45,7.11c-1.83,1.69-3.75,3.28-5.73,4.8a3.08,3.08,0,0,0-1.46,2.44c-.23,4.07-.29,8.13-.18,12.22.29,11.32,0,22.58-3.16,33.65-2,7-4.88,13.74-7.17,20.65-2.77,8.39-4.25,17.13-6.33,25.71-1.76,7.28-3.18,14.64-5.4,21.82s-1.14,14.38-.91,21.59c.18,5.66.72,11.32-.28,17a9.1,9.1,0,0,1-.73,2.89c-2.05,3.58-1.78,7.43-1.83,11.33-.16,11.49-.41,23-3.46,34.2-1.64,6-3.77,11.9-5.63,17.85-1.51,4.83-2.49,9.88-4.48,14.49-3.71,8.58-1.53,17.07-.16,25.49a129.68,129.68,0,0,0,4.71,20.7,42.83,42.83,0,0,0,2.74,6.15,5.11,5.11,0,0,0,2.57,2.63,8.12,8.12,0,0,1,4.38,3.92c2.52,4.82,6.43,8.93,7.08,14.71a15.26,15.26,0,0,1-1.57,9,25,25,0,0,0-2.27,7.1,137.77,137.77,0,0,0-2,21.09c-.14,6.63-1.34,13.24-2.09,19.85-.37,3.31-.82,6.61-1.17,9.92a3.23,3.23,0,0,1-2.81,3A68.07,68.07,0,0,1,367,715.47c-3.76-.16-3.32-.78-4.4-4.33-2.49-8.12-1.27-16.58-2.93-24.73a16.35,16.35,0,0,1,.78-8.33c3-9.62,5.47-19.35,5.47-29.56,0-6-1.92-11.44-3.76-17-1.08-3.23-2.11-6.49-3.21-9.72C358.73,621.09,358.69,620.19,357.77,619.62Zm52.71-348.17a4.53,4.53,0,0,0,.81,0c7.63-.69,15.14-2.2,22.67-3.61a147.85,147.85,0,0,0,30.53-9.22c1.66-.7,1.65-1.28.45-2.38-2.57-2.37-5.14-4.74-7.64-7.18-6-5.82-11.7-11.84-17.48-17.83-5.25-5.45-10.83-10.59-16.22-15.91-1.36-1.34-2.43-3-3.86-4.23-2.73-2.39-7.14-1-7.6,2.45-.84,6.26-2,12.46-2.25,18.82-.19,4.62-.09,9.33-1.3,13.89-.26,1-.37,2.15-1.37,2.55-2,.81-2.29,2.43-2.38,4.24a20,20,0,0,1-.3,4.47c-.88,3,.39,6.75-2.8,9.1-.52.38,0,.94.38,1.25C404.41,269.83,406.72,271.76,410.48,271.45Z" fill="#122744"/></svg>