<svg xmlns="http://www.w3.org/2000/svg" xmlns:xlink="http://www.w3.org/1999/xlink" width="106.073" height="57.959" viewBox="0 0 106.073 57.959"><defs><style>.a{fill:#a3d0cb;}.b{clip-path:url(#a);}.c{fill:#122744;}.d{fill:none;stroke:#122744;stroke-linecap:round;stroke-linejoin:round;stroke-miterlimit:6.2;stroke-width:3px;}</style><clipPath id="a"><rect class="a" width="106.073" height="57.959"/></clipPath></defs><g transform="translate(-2132.029 -803.566)"><g transform="translate(2132.029 803.566)"><g class="b"><path class="a" d="M62,57.94H3.609A3.371,3.371,0,0,1,.151,55.5a4.02,4.02,0,0,1-.076-1.888c.076-.505.532-.636,1.03-.634,2.715.011,5.43-.012,8.145.018.573.006.737-.129.737-.724Q9.96,27.915,9.968,3.558A3.364,3.364,0,0,1,11.9.323,3.672,3.672,0,0,1,13.631,0Q39.975.007,66.317,0q9.767,0,19.534,0a3.36,3.36,0,0,1,3.626,3.649c0,1.887-.02,3.774.014,5.66.009.521-.156.647-.643.62a21.1,21.1,0,0,0-2.162,0c-.432.021-.527-.131-.522-.538.021-1.823-.008-3.647.021-5.469.008-.5-.128-.636-.633-.636q-35.824.019-71.648,0c-.488,0-.641.111-.641.625q.022,22.577,0,45.153c0,.613.265.609.717.609q23.289-.011,46.577-.02c.6,0,.8.114.774.749-.055,1.354-.013,2.713-.018,4.069A5.452,5.452,0,0,0,62,57.94M49.744,52.973q-3.463,0-6.926,0c-.6,0-.668.117-.409.658a1.433,1.433,0,0,0,.6.632,3.046,3.046,0,0,0,1.584.374q2.955,0,5.909,0c1.525,0,3.05.016,4.575-.014a2.047,2.047,0,0,0,1.946-.962c.319-.578.249-.687-.417-.688q-3.431,0-6.862,0" transform="translate(0 0)"/><path class="c" d="M270.756,91.842h-.772q-10.179,0-20.359,0a2.233,2.233,0,0,1-2.492-2.516q0-20.666,0-41.332a2.219,2.219,0,0,1,2.509-2.493h29.775a2.221,2.221,0,0,1,2.484,2.457c0,2.289-.014,4.579.013,6.867.006.481-.124.642-.6.6a7.366,7.366,0,0,0-1.335,0c-.47.043-.559-.153-.553-.579.023-1.547,0-3.094.017-4.642.005-.408-.057-.592-.54-.591q-14.379.022-28.757,0c-.467,0-.552.158-.552.582q.015,17.645-.007,35.291c0,.582.253.584.678.584q9.479-.011,18.959-.006c1.082,0,1.081,0,1.082,1.112,0,.763.01,1.526,0,2.289a4.239,4.239,0,0,0,.453,2.378m-4.993-2.891a1.248,1.248,0,1,0-2.5,0,1.25,1.25,0,0,0,1.251,1.248,1.235,1.235,0,0,0,1.245-1.246" transform="translate(-184.145 -33.904)"/><path class="a" d="M362.824,108.347c0,5.151-.027,10.3.021,15.454a1.9,1.9,0,0,1-1.933,1.932c-4.814-.044-9.63-.018-14.444-.021a1.678,1.678,0,0,1-1.861-1.837q0-15.518,0-31.035a1.69,1.69,0,0,1,1.884-1.88q7.223,0,14.445,0a1.7,1.7,0,0,1,1.889,1.87q0,7.759,0,15.518m-2.612-.815c0-3.921-.007-7.841.01-11.762,0-.493-.081-.7-.647-.7q-6.011.037-12.023,0c-.518,0-.632.164-.631.653q.021,11.794,0,23.588c0,.529.181.633.657.631q6.011-.021,12.023,0c.523,0,.627-.17.625-.654-.018-3.92-.01-7.841-.01-11.762m-5.254,15.3a1.248,1.248,0,1,0-1.251,1.24,1.244,1.244,0,0,0,1.251-1.24" transform="translate(-256.772 -67.774)"/></g></g><g transform="translate(2160.461 823.692)"><path class="d" d="M-328.912-1095.224a.738.738,0,0,0,0-1.094l-3.658-3.658a.772.772,0,0,0-1.094,0l-5.933,5.923-5.925,5.915c-.306,1.9-.62,3.8-.925,5.7l5.677-.947c3.069-3.069,4.52-4.514,5.983-5.972S-331.884-1092.252-328.912-1095.224Z" transform="translate(346.448 1100.204)"/><rect class="c" width="1.118" height="6.801" rx="0.559" transform="matrix(-0.707, 0.707, -0.707, -0.707, 16.131, 6.387)"/><path class="c" d="M-343.056-954.268l-3.264-3.264-.129,3.347Z" transform="translate(346.448 971.949)"/><rect class="c" width="1.118" height="6.801" rx="0.559" transform="matrix(-0.707, 0.707, -0.707, -0.707, 6.547, 15.911)"/></g></g></svg>