<svg xmlns="http://www.w3.org/2000/svg" viewBox="0 0 676 768"><path d="M228.57,669.27c-.08,5.31.25,10.62.47,15.91.13,2.93.51,5.88.7,8.83a56.6,56.6,0,0,1,.44,6.34c-.15,3.33,1.16,6.09,2.78,8.8.61,1,1.27,2,1.9,3a4.6,4.6,0,0,0,1,1.11,13.27,13.27,0,0,0,9.52,3.45c3.13-.19,6.24.3,9.37.34a16.76,16.76,0,0,1,6,1.37,28.24,28.24,0,0,0,11.81,2,35.19,35.19,0,0,1,8,.63,50.64,50.64,0,0,0,7.5.69,20.46,20.46,0,0,1,7.68,1.45,4.62,4.62,0,0,1,2.26,1.65,5.22,5.22,0,0,0,1.82,1.44c1.08.72,1.21,1.22.82,2.77-.26,1.06-.62,1.42-1.94,1.43a10.37,10.37,0,0,0-5.3,1.28,2,2,0,0,1-1.14.21c-2.7-.13-5.33.52-8,.59a2.67,2.67,0,0,0-2.25,1.28,2.27,2.27,0,0,1-2.13,1.06c-4.41,0-8.82,0-13.23-.26-3.51-.21-7-.68-10.49-1-2.78-.26-5.57.27-8.35.42a24.6,24.6,0,0,1-3.84,0,88.17,88.17,0,0,0-11.36-.81,21.81,21.81,0,0,0-3,.18,17,17,0,0,1-5.81-.44,4.25,4.25,0,0,1-2.43-1.42,21.83,21.83,0,0,1-5.45-10.57c-.18-1-.44-2.07-.62-3.12a14.17,14.17,0,0,0-1-3.36c-1.89-4.38-2.84-9-4.22-13.59-.7-2.3-1.49-4.57-2.16-6.87a55.05,55.05,0,0,1-2.47-10.07,31,31,0,0,0-1.63-5.79c-2-6.53-4.24-13-6-19.54-.77-2.86-1.92-5.59-2.76-8.44a33,33,0,0,1-1.25-8.75c-.09-3.8-.24-7.58-.65-11.36a30.79,30.79,0,0,1,.76-11.31,73.34,73.34,0,0,0,1.69-9.39c.37-2.88,1-5.71,1.3-8.6.25-2.34.34-4.69.46-7a73.5,73.5,0,0,1,2.17-13.38c.72-3,1.55-5.94,2.06-9a3.81,3.81,0,0,1,.47-1.75c1.54-1.78,1.31-4.1,2-6.13a33.7,33.7,0,0,0,1.14-6.73,30.82,30.82,0,0,1,2.27-7.35,19.15,19.15,0,0,0,1.12-9.86,24.8,24.8,0,0,1,.08-8.8,37.16,37.16,0,0,0-.23-15.78,33.17,33.17,0,0,0-1.55-4.6A63.74,63.74,0,0,1,204.13,499c-.94-5-1.33-10.18-2.15-15.25a44.16,44.16,0,0,1-.32-12.68c.21-1.61.09-3.23.29-4.85.3-2.5.79-5,1.21-7.44a29.25,29.25,0,0,1,3.59-9.34c1.41-2.54,2.83-5.07,4.07-7.7,1.09-2.33,2.71-4.36,3.87-6.66,2.31-4.6,5.67-8.56,8.15-13.06a17,17,0,0,1,3.26-4c3.27-3.14,6-6.8,9.17-10a92.24,92.24,0,0,1,7.76-6.89,33.42,33.42,0,0,0,3.53-3.08,13,13,0,0,1,5.86-3.42,38.84,38.84,0,0,0,7.33-2.83,12.15,12.15,0,0,1,3.56-.88,93.07,93.07,0,0,0,9.83-2.76,6.19,6.19,0,0,0,3.17-2.08,16,16,0,0,1,7.71-5.11,64.2,64.2,0,0,1,14.31-3.43A37.51,37.51,0,0,0,306,376c3.2-1,6.4-1.92,9.22-3.85a25.59,25.59,0,0,1,3.56-1.86,6.14,6.14,0,0,1,3.24-.68,4.68,4.68,0,0,0,1.49-.12,2.41,2.41,0,0,0,2-2.54,4.58,4.58,0,0,0-.23-1.48,30.45,30.45,0,0,1-1.59-8.37,18,18,0,0,1,.83-7.44,20.45,20.45,0,0,0,.84-11.2,98.41,98.41,0,0,0-2.75-13.28,12.51,12.51,0,0,1-.45-3.82c0-3.63-.09-7.27,0-10.89.11-2.85.15-5.68,0-8.53-.25-4.8.48-9.59.32-14.4-.11-3.29,0-6.59-.08-9.89-.07-2.4-.3-4.79-.5-7.18-.16-1.84-.09-3.68-.1-5.53a49.07,49.07,0,0,0-.88-10.32,17.16,17.16,0,0,1,.31-7.16c.62-2.95,1.4-5.87,1.92-8.84.73-4.15,2.3-8.05,3.34-12.1a32.47,32.47,0,0,0,.93-5.62c.19-2.5.56-5,.84-7.48a68.72,68.72,0,0,0,.85-9.5,41.22,41.22,0,0,1,.6-7.68,44,44,0,0,0-.35-14.83,8.82,8.82,0,0,1-.2-2.17c.32-4.17.23-8.37,1.13-12.5a31.45,31.45,0,0,0,.5-5.33c.13-2.83.22-5.67.08-8.52-.17-3.68,0-7.37,0-11.06a104.11,104.11,0,0,0-.8-12.86,81.07,81.07,0,0,1-.54-9.33,27.75,27.75,0,0,0-.89-5.28c-.84-3.87-1.53-7.78-2.6-11.6-.75-2.7-.64-5.54-1.19-8.28-.79-3.89-1.23-7.83-1.63-11.78a36.79,36.79,0,0,1,.41-7.34,27.14,27.14,0,0,1,.86-4.27,30,30,0,0,0,.93-8.63c-.19-6.43,1-12.68,1.88-19a14.72,14.72,0,0,1,6.09-9.82,1.64,1.64,0,0,1,1.7-.35c1.81.73,3.68,1.3,5.18,2.66a3.44,3.44,0,0,1,1.37,2.73,17.94,17.94,0,0,0,2.11,9,21.93,21.93,0,0,1,1.82,6.43,69.46,69.46,0,0,0,2.36,9.07c.88,2.59,1.7,5.2,2.51,7.81a14.36,14.36,0,0,0,1.48,3,46.7,46.7,0,0,0,5.57,8.14A30.76,30.76,0,0,0,360.71,85a13.06,13.06,0,0,1,4,5.67,53.44,53.44,0,0,1,2.15,7.22,7.69,7.69,0,0,1-2,7.13c-1.36,1.5-3.09,2.56-4.5,4a14.92,14.92,0,0,0-3.78,8.06c-.53,2.8,0,5.57.2,8.34.67,8.13,2.35,16.13,3.37,24.21.25,2,.35,4,.7,6,1.47,8.24,2.91,16.5,5.38,24.53,1.1,3.58,2,7.22,2.86,10.86a41,41,0,0,1,.65,10.49,110.31,110.31,0,0,1-2.43,19.42c-1,4.82-2.18,9.59-3.44,14.34a26.1,26.1,0,0,0-.86,6.46c0,4.53-.1,9.06,0,13.58a54.21,54.21,0,0,0,2.34,14.18c1.54,5.14,2.65,10.4,4.27,15.51,1.33,4.22,3,8.3,4.66,12.39A76.81,76.81,0,0,1,379,311.18c.67,3.29,1,6.62,1.51,9.92.4,2.66,1.13,5.24,1.79,7.84.23.92.51,1.83.66,2.77a90.42,90.42,0,0,0,3.5,13.45c2.63,8.25,5.17,16.53,7.2,24.95.8,3.32,1.43,6.66,1.94,10,.44,2.87,1.21,5.69,1.44,8.59.33,4.06,1.13,8.08,1.2,12.17a5.73,5.73,0,0,0,2.41,4.41,47.85,47.85,0,0,1,6.73,7,60.2,60.2,0,0,0,6.55,6.22,77.89,77.89,0,0,0,6.62,5.12c3.31,2.36,5.9,5.45,8.71,8.31,2.31,2.36,4.58,4.74,7.07,6.91a20.75,20.75,0,0,1,2.22,2.72,80.68,80.68,0,0,0,5.92,6.61c2.73,2.71,5.35,5.54,8,8.31,1.63,1.69,3.37,3.26,5.07,4.88a108.93,108.93,0,0,1,7.85,8.91c3.62,4.28,6.77,8.89,10.1,13.37a75.76,75.76,0,0,1,6.11,9.61,12.35,12.35,0,0,1,1.29,5.51c.15,5,.6,10.06-.59,15-.76,3.15-1.71,6.25-2.57,9.37a109.88,109.88,0,0,0-3.44,18.26c-.81,8-1.38,16-2.85,23.94a42,42,0,0,0-.5,5.5A76.21,76.21,0,0,1,471.15,585c-1,4.23-1.53,8.58-2.2,12.88-.55,3.59-.8,7.21-1.05,10.83-.27,4-.6,7.9-.91,11.85,0,.22-.05.44-.05.67-.08,4-.12,8-.29,12-.21,5.2.68,10.35,1.42,15.49.2,1.44.45,2.87.71,4.3a5.5,5.5,0,0,1,0,2.32,30.61,30.61,0,0,0-.79,8.15,67.29,67.29,0,0,1-.43,7.52,12.5,12.5,0,0,1-1.84,5.18c-1.69,3-2.05,6.23-2.12,9.55a4.71,4.71,0,0,0,2.86,4.52c4.16,2.16,8.44,4.09,12.29,6.8.18.13.39.22.57.36a1.59,1.59,0,0,1,.72,1.74c-.2.65-.84.69-1.39.71a18.62,18.62,0,0,0-4.56,1,9.46,9.46,0,0,1-5.6-.06,55.89,55.89,0,0,0-7-1.42c-4.11-.75-7.68-2.64-11.22-4.67-.83-.47-1.59-1-2.38-1.58a3.46,3.46,0,0,1-1.51-1.74,51.94,51.94,0,0,0-3.27-7,18.65,18.65,0,0,1-1.56-7.15,14.3,14.3,0,0,0-.77-4.1,14.58,14.58,0,0,1-.4-3.48c-.69-5.63-2.39-11-3.71-16.5-1.21-5-2.42-10-2.21-15.21.11-2.69.94-5,3.32-6.55,1-.64,1.85-1.43,2.88-2a4.06,4.06,0,0,0,1.85-2.69,10.71,10.71,0,0,0,.21-4.33,20.75,20.75,0,0,1,.13-7.16,30,30,0,0,0,.2-8.52c-.39-4.78-.88-9.56-1.24-14.34-.19-2.67-.67-5.32-1-8-.4-3.78-.71-7.56-1.09-11.33a111.09,111.09,0,0,1-.66-11.53A130,130,0,0,1,441.15,540a62.6,62.6,0,0,1,2.63-10.72,36,36,0,0,0,1.56-8.22c.19-1.78.62-3.51.89-5.28a7.79,7.79,0,0,0-.73-5.2c-.89-1.56-1.18-3.37-2.21-4.88a8.35,8.35,0,0,0-4.17-3.69,4.31,4.31,0,0,1-1.54-1,71.12,71.12,0,0,0-10.38-7.91c-4.86-3.19-9.33-6.95-14.36-9.86a33.6,33.6,0,0,1-7.74-6.6,12.8,12.8,0,0,1-1.84-2.39,9.11,9.11,0,0,0-3.56-3.67,12.22,12.22,0,0,1-2.54-2.17,46.92,46.92,0,0,0-6.66-5.6,2.36,2.36,0,0,0-.86-.5A26.92,26.92,0,0,1,386.3,461a15.14,15.14,0,0,1-4.51-2.49,4.62,4.62,0,0,0-3.57-1.05c-1.27.15-2.58-.12-3.84,0-4.84.6-9.71.19-14.55.64a36.25,36.25,0,0,1-13.91-1.57,17,17,0,0,1-5.19-2.66c-3-2.22-5.79-4.74-8.73-7-1.55-1.23-3.34-2.49-5.62-1.83a1.12,1.12,0,0,1-1.19-.41c-.23-.25-.39-.65-.66-.75a4.94,4.94,0,0,1-2.85-2.29c-.3-.55-1-.37-1.5,0a5.44,5.44,0,0,0-1.22,1.36c-1.25,1.6-2.17,1.83-3.88.83a6.71,6.71,0,0,0-4.45-1.1c-.33.05-.72-.06-1,.16a2.38,2.38,0,0,1-2.6.41c-.84-.29-1.5.29-1.65,1.22a9.82,9.82,0,0,0,0,1.33c0,1.35-.1,1.55-1.32,1.94-1.53.48-1.57.48-1.57,2a1.67,1.67,0,0,1-.59,1.31,4.4,4.4,0,0,1-1.69,1.06,6.27,6.27,0,0,0-3.75,3.38c-.44.9-.86,1.52-2.09,1.49s-2.76,1.7-2.7,3.15a2.21,2.21,0,0,1-.83,1.95c-.94.93-2.14,1.83-2.32,3.34a1,1,0,0,1-.29.59c-1.75,1.45-2.41,3.75-4.08,5.25-.2.18-.44.52-.39.72.34,1.48-.79,2.63-.87,4a1.84,1.84,0,0,1-.22,1c-1.11,1.37-1.14,3.2-2.06,4.64a1.61,1.61,0,0,0,0,1.74c.3.57.29,1.21-.3,1.47-2,.89-2.46,2.78-2.57,4.57-.14,2.41-1.07,4.53-1.78,6.75a17.35,17.35,0,0,0-.83,4.76,26.94,26.94,0,0,1-.88,5.78,7,7,0,0,1-1.78,3.37,5.13,5.13,0,0,0-1.2,1.79c-1,2.77-2.92,5-4.45,7.47-1.86,3-1.4,4.45,1.91,5.48a62.83,62.83,0,0,1,10.63,4,3,3,0,0,0,.95.32,16.77,16.77,0,0,1,6.17,2.48,18.35,18.35,0,0,0,2.55,1.27,4.56,4.56,0,0,1,2.61,2.45,24.17,24.17,0,0,0,4.46,6.25,26.47,26.47,0,0,0,3.69,3.87,3.68,3.68,0,0,1,.95,1.55c.68,1.38,1.33,1.5,2.66.77a15,15,0,0,1,10.86-1.56,50.52,50.52,0,0,1,7.86,2.31,13.64,13.64,0,0,1,6.31,5.77,2.23,2.23,0,0,1,.32,1.12c0,2.28,0,4.55-.93,6.74a18.73,18.73,0,0,0-1.24,5.53,5.53,5.53,0,0,1-1.54,3.61,45.33,45.33,0,0,1-6,5.37,12.43,12.43,0,0,1-7.69,1.85,9.46,9.46,0,0,1-4.82-2.17,9,9,0,0,0-1.1-.76,2.09,2.09,0,0,0-3,2.15l0,.16c1.23,4.31,0,8.47-1.28,12.44a19.87,19.87,0,0,1-5.61,9.19,6,6,0,0,0-1.16,1.21,8.4,8.4,0,0,1-4.63,3.38c-2.09.78-4.11,1.76-6.19,2.55a6.45,6.45,0,0,1-6.36-.67,2,2,0,0,0-2.33-.15,28.9,28.9,0,0,1-7.32,2.32,6.84,6.84,0,0,1-3.15,0,10.73,10.73,0,0,0-5.31-.13,3.8,3.8,0,0,1-3-.69c-2.18-1.4-4.62-1.57-7.09-1.58a4.26,4.26,0,0,0-1,.11,1.8,1.8,0,0,0-1.55,2.46c.37,1.58.63,3.18.88,4.78a82.65,82.65,0,0,1,1,13.52c-.06,5.25,0,10.5,0,15.76,0,3.25.58,6.44.84,9.67s.56,6.45.85,9.68c.36,4.11.56,8.25,1.16,12.33a45.17,45.17,0,0,0,1.78,8,7.08,7.08,0,0,0,4.62,4.5,19.19,19.19,0,0,0,5.6,1,29,29,0,0,1,3.49.35c2.93.49,5.92.17,8.85.64a10.72,10.72,0,0,1,1.48.28,100,100,0,0,0,16.33,3.51c2.9.42,5.57,1.64,8.37,2.38,3.2.84,6.14,2.36,9.21,3.56l.15.07c.46.28,1.17.39,1.06,1.11-.09.57-.71.64-1.17.83-4.81,1.91-9.78,2.06-14.84,1.57-2-.2-4-.36-6-.72a5.09,5.09,0,0,0-3.39.63,12.35,12.35,0,0,1-7.16,1.11c-3.12-.25-6.21-.75-9.31-1.11a11.62,11.62,0,0,0-3.17,0,71.89,71.89,0,0,1-8,.34,24,24,0,0,1-13.24-3.54,10.76,10.76,0,0,1-3.25-3.33,28,28,0,0,1-4.53-10,129.94,129.94,0,0,0-7.58-22.52,5.87,5.87,0,0,0-.38-.75c-.18-.28-.42-.54-.8-.47a.82.82,0,0,0-.63.71,8.52,8.52,0,0,0-.11,1.33C228.56,665.36,228.57,667.32,228.57,669.27Z" fill="#122744"/></svg>